<svg width="450" height="350" viewBox="0 0 450 350" fill="none" xmlns="http://www.w3.org/2000/svg">
<path d="M302.001 291H49.001C42.9031 290.993 37.0569 288.568 32.7451 284.256C28.4332 279.944 26.0078 274.098 26.001 268V123C26.0079 116.902 28.4333 111.056 32.7452 106.744C37.057 102.432 42.9031 100.007 49.001 100H302.001C308.099 100.007 313.945 102.432 318.257 106.744C322.569 111.056 324.994 116.902 325.001 123V268C324.994 274.098 322.569 279.944 318.257 284.256C313.945 288.568 308.099 290.993 302.001 291Z" fill="#1E2A3B"/>
<path d="M302.001 291H49.001C42.9031 290.993 37.0569 288.568 32.7451 284.256C28.4332 279.944 26.0078 274.098 26.001 268V123C26.0079 116.902 28.4333 111.056 32.7452 106.744C37.057 102.432 42.9031 100.007 49.001 100H302.001C308.099 100.007 313.945 102.432 318.257 106.744C322.569 111.056 324.994 116.902 325.001 123V268C324.994 274.098 322.569 279.944 318.257 284.256C313.945 288.568 308.099 290.993 302.001 291ZM49.001 102C43.4333 102.006 38.0955 104.221 34.1586 108.158C30.2217 112.095 28.0072 117.432 28.001 123V268C28.0073 273.568 30.2218 278.905 34.1587 282.842C38.0956 286.779 43.4334 288.994 49.001 289H302.001C307.569 288.994 312.906 286.779 316.843 282.842C320.78 278.905 322.995 273.568 323.001 268V123C322.995 117.432 320.78 112.095 316.843 108.158C312.906 104.221 307.569 102.006 302.001 102H49.001Z" fill="#2D3D53"/>
<path d="M323.002 205.339H27C26.7348 205.339 26.4804 205.234 26.2929 205.046C26.1053 204.859 26 204.605 26 204.339C26 204.074 26.1053 203.82 26.2929 203.632C26.4804 203.445 26.7348 203.339 27 203.339H323.002C323.267 203.339 323.521 203.445 323.709 203.632C323.896 203.82 324.002 204.074 324.002 204.339C324.002 204.605 323.896 204.859 323.709 205.046C323.521 205.234 323.267 205.339 323.002 205.339Z" fill="#1B2532"/>
<path d="M181.819 62.6378C196.631 62.6378 208.638 50.6306 208.638 35.8189C208.638 21.0072 196.631 9 181.819 9C167.007 9 155 21.0072 155 35.8189C155 50.6306 167.007 62.6378 181.819 62.6378Z" fill="#20A6AF"/>
<path d="M185.754 40.0192C185.817 39.3611 185.798 38.7054 185.703 38.0653L187.182 37.4058C187.043 36.689 186.823 35.9819 186.518 35.2976C186.213 34.6138 185.835 33.9775 185.396 33.3937L183.915 34.0527C183.503 33.5543 183.029 33.102 182.498 32.708L183.078 31.1957C182.472 30.7881 181.817 30.4435 181.117 30.1751C180.421 29.9077 179.706 29.7228 178.978 29.6204L178.397 31.1341C177.739 31.0715 177.084 31.0904 176.443 31.1855L175.788 29.7131C174.323 30.0009 172.955 30.6221 171.78 31.5097L172.431 32.9724C171.932 33.3845 171.479 33.8596 171.085 34.39L169.577 33.8115C169.165 34.4162 168.82 35.0719 168.551 35.7708C168.285 36.4696 168.102 37.1869 168 37.9095L169.512 38.49C169.45 39.148 169.469 39.8037 169.564 40.4438L168.084 41.1029C168.224 41.8202 168.444 42.5268 168.748 43.2111C169.054 43.8954 169.432 44.5311 169.871 45.115L171.351 44.4559C171.763 44.9548 172.237 45.4071 172.769 45.8012L172.188 47.3144C172.794 47.7225 173.45 48.0666 174.149 48.335C174.845 48.6024 175.561 48.7873 176.288 48.8897L176.869 47.376C177.527 47.4381 178.183 47.4192 178.823 47.3241L179.479 48.796C180.943 48.5083 182.313 47.8871 183.487 46.9994L182.836 45.5367C183.334 45.1247 183.787 44.65 184.181 44.1191L185.689 44.6976C186.1 44.0929 186.445 43.4372 186.714 42.7389C186.982 42.04 187.164 41.3222 187.267 40.5991L185.754 40.0192ZM181.734 40.8282C180.865 43.0936 178.325 44.2244 176.059 43.3552C173.796 42.4865 172.663 39.9464 173.532 37.6814C174.401 35.4165 176.942 34.2857 179.206 35.1539C181.471 36.0226 182.603 38.5637 181.734 40.8282Z" fill="white"/>
<path d="M193.947 27.9601C193.947 27.667 193.917 27.3802 193.866 27.1016L195 26.4464C194.725 25.402 194.18 24.4668 193.434 23.7282L192.297 24.3848C191.863 24.0131 191.36 23.7219 190.81 23.5278V22.216C190.309 22.0786 189.785 22 189.242 22C188.699 22 188.175 22.0796 187.673 22.216V23.5282C187.123 23.7224 186.621 24.014 186.187 24.3853L185.049 23.7287C184.304 24.4673 183.758 25.4025 183.483 26.4469L184.618 27.1021C184.566 27.3811 184.536 27.667 184.536 27.9606C184.536 28.2542 184.566 28.5405 184.618 28.8191L183.483 29.4743C183.758 30.5187 184.304 31.4544 185.049 32.1925L186.186 31.5359C186.621 31.9076 187.123 32.1988 187.673 32.393V33.7052C188.174 33.8421 188.698 33.9212 189.241 33.9212C189.784 33.9212 190.309 33.8416 190.81 33.7052V32.393C191.36 32.1988 191.862 31.9072 192.296 31.5359L193.433 32.1925C194.179 31.4539 194.725 30.5187 194.999 29.4743L193.865 28.8191C193.917 28.5396 193.947 28.2537 193.947 27.9601ZM189.242 30.1566C188.029 30.1566 187.045 29.1734 187.045 27.9606C187.045 26.7478 188.029 25.7641 189.242 25.7641C190.454 25.7641 191.438 26.7473 191.438 27.9601C191.438 29.1729 190.454 30.1566 189.242 30.1566Z" fill="white"/>
<path d="M232.948 112.424H118.054C115.255 112.424 112.571 111.313 110.592 109.333C108.613 107.354 107.501 104.67 107.501 101.871C107.501 99.0723 108.613 96.3881 110.592 94.409C112.571 92.4299 115.255 91.318 118.054 91.318H232.948C234.334 91.3167 235.708 91.5886 236.989 92.1184C238.271 92.6481 239.436 93.4252 240.417 94.4053C241.398 95.3854 242.176 96.5493 242.707 97.8303C243.238 99.1114 243.511 100.484 243.511 101.871C243.511 103.258 243.238 104.631 242.707 105.912C242.176 107.193 241.398 108.357 240.417 109.337C239.436 110.317 238.271 111.094 236.989 111.624C235.708 112.154 234.334 112.426 232.948 112.424Z" fill="#20A6AF"/>
<path d="M185.001 145H145.001C143.94 145 142.923 144.579 142.173 143.828C141.422 143.078 141.001 142.061 141.001 141C141.001 139.939 141.422 138.922 142.173 138.172C142.923 137.421 143.94 137 145.001 137H185.001C186.062 137 187.079 137.421 187.829 138.172C188.58 138.922 189.001 139.939 189.001 141C189.001 142.061 188.58 143.078 187.829 143.828C187.079 144.579 186.062 145 185.001 145Z" fill="#CCCCCC"/>
<g opacity="0.5">
<path d="M102.922 249.3H71.678C71.4128 249.3 71.1584 249.195 70.9709 249.007C70.7833 248.82 70.678 248.565 70.678 248.3C70.678 248.035 70.7833 247.78 70.9709 247.593C71.1584 247.405 71.4128 247.3 71.678 247.3H102.922C103.187 247.3 103.442 247.405 103.629 247.593C103.817 247.78 103.922 248.035 103.922 248.3C103.922 248.565 103.817 248.82 103.629 249.007C103.442 249.195 103.187 249.3 102.922 249.3Z" fill="#CCCCCC"/>
<path d="M102.922 265.3H71.678C71.4128 265.3 71.1584 265.195 70.9709 265.007C70.7833 264.82 70.678 264.565 70.678 264.3C70.678 264.035 70.7833 263.78 70.9709 263.593C71.1584 263.405 71.4128 263.3 71.678 263.3H102.922C103.187 263.3 103.442 263.405 103.629 263.593C103.817 263.78 103.922 264.035 103.922 264.3C103.922 264.565 103.817 264.82 103.629 265.007C103.442 265.195 103.187 265.3 102.922 265.3Z" fill="#CCCCCC"/>
<path d="M273.922 249.3H242.678C242.413 249.3 242.158 249.195 241.971 249.007C241.783 248.82 241.678 248.565 241.678 248.3C241.678 248.035 241.783 247.78 241.971 247.593C242.158 247.405 242.413 247.3 242.678 247.3H273.922C274.187 247.3 274.442 247.405 274.629 247.593C274.817 247.78 274.922 248.035 274.922 248.3C274.922 248.565 274.817 248.82 274.629 249.007C274.442 249.195 274.187 249.3 273.922 249.3Z" fill="#CCCCCC"/>
<path d="M273.922 265.3H242.678C242.413 265.3 242.158 265.195 241.971 265.007C241.783 264.82 241.678 264.565 241.678 264.3C241.678 264.035 241.783 263.78 241.971 263.593C242.158 263.405 242.413 263.3 242.678 263.3H273.922C274.187 263.3 274.442 263.405 274.629 263.593C274.817 263.78 274.922 264.035 274.922 264.3C274.922 264.565 274.817 264.82 274.629 265.007C274.442 265.195 274.187 265.3 273.922 265.3Z" fill="#CCCCCC"/>
<path d="M216.922 249.3H185.678C185.413 249.3 185.158 249.195 184.971 249.007C184.783 248.82 184.678 248.565 184.678 248.3C184.678 248.035 184.783 247.78 184.971 247.593C185.158 247.405 185.413 247.3 185.678 247.3H216.922C217.187 247.3 217.442 247.405 217.629 247.593C217.817 247.78 217.922 248.035 217.922 248.3C217.922 248.565 217.817 248.82 217.629 249.007C217.442 249.195 217.187 249.3 216.922 249.3Z" fill="#CCCCCC"/>
<path d="M216.922 265.3H185.678C185.413 265.3 185.158 265.195 184.971 265.007C184.783 264.82 184.678 264.565 184.678 264.3C184.678 264.035 184.783 263.78 184.971 263.593C185.158 263.405 185.413 263.3 185.678 263.3H216.922C217.187 263.3 217.442 263.405 217.629 263.593C217.817 263.78 217.922 264.035 217.922 264.3C217.922 264.565 217.817 264.82 217.629 265.007C217.442 265.195 217.187 265.3 216.922 265.3Z" fill="#CCCCCC"/>
<path d="M159.922 249.3H128.678C128.413 249.3 128.158 249.195 127.971 249.007C127.783 248.82 127.678 248.565 127.678 248.3C127.678 248.035 127.783 247.78 127.971 247.593C128.158 247.405 128.413 247.3 128.678 247.3H159.922C160.187 247.3 160.442 247.405 160.629 247.593C160.817 247.78 160.922 248.035 160.922 248.3C160.922 248.565 160.817 248.82 160.629 249.007C160.442 249.195 160.187 249.3 159.922 249.3Z" fill="#CCCCCC"/>
<path d="M159.922 265.3H128.678C128.413 265.3 128.158 265.195 127.971 265.007C127.783 264.82 127.678 264.565 127.678 264.3C127.678 264.035 127.783 263.78 127.971 263.593C128.158 263.405 128.413 263.3 128.678 263.3H159.922C160.187 263.3 160.442 263.405 160.629 263.593C160.817 263.78 160.922 264.035 160.922 264.3C160.922 264.565 160.817 264.82 160.629 265.007C160.442 265.195 160.187 265.3 159.922 265.3Z" fill="#CCCCCC"/>
<path d="M195.001 230.3H155.001C153.94 230.3 152.923 229.879 152.173 229.128C151.422 228.378 151.001 227.361 151.001 226.3C151.001 225.239 151.422 224.222 152.173 223.472C152.923 222.721 153.94 222.3 155.001 222.3H195.001C196.062 222.3 197.079 222.721 197.829 223.472C198.58 224.222 199.001 225.239 199.001 226.3C199.001 227.361 198.58 228.378 197.829 229.128C197.079 229.879 196.062 230.3 195.001 230.3Z" fill="#CCCCCC"/>
</g>
<path d="M271.001 167H144.001C142.94 167 141.923 166.579 141.173 165.828C140.422 165.078 140.001 164.061 140.001 163C140.001 161.939 140.422 160.922 141.173 160.172C141.923 159.421 142.94 159 144.001 159H271.001C272.062 159 273.079 159.421 273.829 160.172C274.58 160.922 275.001 161.939 275.001 163C275.001 164.061 274.58 165.078 273.829 165.828C273.079 166.579 272.062 167 271.001 167Z" fill="#CCCCCC"/>
<path d="M410.672 217.434L406.834 179.041L405.821 163.24L416.564 161.232C416.564 161.232 418.173 172.095 419.58 178.47C420.969 184.76 417.73 216.592 417.644 217.431C418.433 218.16 418.989 219.12 419.239 220.182C419.489 221.245 419.421 222.361 419.043 223.383C418.666 224.405 417.997 225.285 417.126 225.905C416.254 226.526 415.221 226.858 414.162 226.859C413.104 226.859 412.071 226.528 411.198 225.908C410.326 225.288 409.657 224.41 409.279 223.388C408.9 222.367 408.831 221.25 409.08 220.187C409.329 219.124 409.884 218.164 410.672 217.434Z" fill="#FFB8B8"/>
<path d="M383.178 331.719L377.85 332.978L370.617 312.34L378.48 310.482L383.178 331.719Z" fill="#FFB6B6"/>
<path d="M384.141 329.601L382.781 329.92L382.641 329.955L376.423 328.907L376.242 328.877L373.646 332.079C371.873 332.499 370.333 333.629 369.365 335.221C368.398 336.813 368.082 338.737 368.487 340.57L368.495 340.608L368.541 340.796L369.332 340.608L385.719 336.734L384.141 329.601Z" fill="#2F2E41"/>
<path d="M414.939 335.319H409.473L406.874 313.534L414.94 313.535L414.939 335.319Z" fill="#FFB6B6"/>
<path d="M414.796 333.476L414.318 333.276L408.962 331.023L408.789 330.951L405.571 333.476C404.67 333.476 403.778 333.659 402.946 334.015C402.114 334.371 401.357 334.892 400.72 335.55C400.083 336.208 399.578 336.99 399.233 337.849C398.888 338.709 398.71 339.631 398.71 340.562V340.792L413.795 340.796H416.333V333.476H414.796Z" fill="#2F2E41"/>
<path d="M406.626 218.726L411.223 263.854C411.223 263.854 417.342 309.04 416.193 315.275C415.044 321.51 416.481 322.401 416.481 322.401L405.995 321.629C405.995 321.629 406.282 317.769 404.558 315.988C402.835 314.207 403.696 308.862 403.696 308.862L383.356 235.352L371.002 273.948C371.002 273.948 378.807 305.248 378.519 305.842C378.232 306.436 383.464 319.468 383.464 319.468L371.758 323.48C371.758 323.48 373.195 318.729 371.184 317.245C369.173 315.76 367.449 316.948 369.173 314.276C370.897 311.604 355.592 291.98 355.928 279.333C356.029 275.528 356.152 271.446 356.299 267.264C357.077 245.133 358.547 220.196 361.234 218.726C366.118 216.053 406.626 218.726 406.626 218.726Z" fill="#2F2E41"/>
<path d="M384.858 127.352C391.102 127.352 396.164 122.121 396.164 115.668C396.164 109.215 391.102 103.984 384.858 103.984C378.614 103.984 373.552 109.215 373.552 115.668C373.552 122.121 378.614 127.352 384.858 127.352Z" fill="#FFB8B8"/>
<path d="M422.608 187.039L407.256 191.066L407.362 186.613L406.197 185.336L403.869 172.733L401.397 140.103L409.881 144.753L409.891 144.761C411.372 146.446 412.611 148.341 413.57 150.391C416.768 157.11 419.84 171.909 421.448 180.504C421.503 180.684 421.61 180.843 421.754 180.96C422.552 181.717 423.072 182.735 423.228 183.842C423.383 184.95 423.164 186.079 422.608 187.039Z" fill="#497AD4"/>
<path d="M331.886 201.478C331.886 201.478 353.076 178.39 353.274 177.955C354.754 166.339 359.011 161.215 359.649 161.771L370.638 165.705C370.638 165.705 367.369 176.401 365.156 182.754C363.042 188.825 338.671 203.653 338.264 204.385C338.701 205.382 338.835 206.492 338.648 207.568C338.461 208.645 337.962 209.637 337.217 210.414C336.473 211.192 335.517 211.717 334.477 211.921C333.437 212.125 332.362 211.997 331.394 211.556C330.426 211.114 329.61 210.38 329.054 209.449C328.499 208.518 328.23 207.434 328.283 206.342C328.337 205.249 328.709 204.2 329.353 203.331C329.996 202.462 330.879 201.816 331.886 201.478Z" fill="#FFB8B8"/>
<path d="M375.916 142.205C375.916 142.205 366.402 137.386 362.713 146.85C360.69 152.193 355.516 165.159 352.938 173.141C352.921 173.192 352.897 173.24 352.867 173.285C352.178 174.343 351.806 175.589 351.798 176.865C351.799 176.958 351.789 177.051 351.77 177.142C351.77 177.142 362.224 179.247 365.334 184.91L366.567 183.527L366.787 182.558L375.916 142.205Z" fill="#497AD4"/>
<path d="M410.534 223.644C388.639 228.317 359.623 220.283 359.623 220.283L367.363 185.609L364.611 149.322C364.275 144.884 366.721 140.725 370.526 139.251L375.779 137.217L380.122 130.792L392.526 131.213L397.484 137.958L401.397 140.103L409.881 144.753L409.918 144.772V144.792L407.256 171.479L405.65 187.569C405.65 187.569 410.526 205.666 409.526 208.067C408.525 210.463 409.395 209.305 409.638 210.586C409.881 211.867 410.624 211.948 410.736 214.472C410.851 216.992 410.534 223.644 410.534 223.644Z" fill="#497AD4"/>
<path d="M397.122 111.507C396.229 110.597 397.574 108.185 397.32 106.915C397.029 105.459 395.476 105.416 395.105 103.979C394.707 102.433 393.113 101.592 391.639 101.102C387.862 99.8526 383.831 99.6619 379.959 100.549C378.246 100.981 376.558 101.518 374.906 102.157C373.766 102.572 374.866 101.444 373.725 101.858C373.293 101.958 372.912 102.219 372.656 102.592C372.451 102.992 372.727 103.633 373.159 103.552C371.766 104.186 370.374 104.821 368.982 105.455C369.763 106.301 370.544 107.146 371.324 107.991C370.214 107.665 369.031 109.033 369.468 110.136C369.645 110.485 369.9 110.784 370.213 111.007C370.525 111.231 370.886 111.373 371.264 111.42C372.518 111.673 371.566 112.906 372.844 112.882C374.121 112.858 383.029 110.152 383.65 111.306C384.093 112.127 384.044 113.216 384.675 113.893C385.483 114.759 386.894 114.442 387.922 113.878C388.95 113.314 389.993 112.539 391.15 112.675C392.357 112.816 393.271 115.122 393.568 116.34C393.865 117.557 393.678 118.839 393.488 120.079C393.24 121.709 390.751 123.338 390.502 124.967C393.265 125.757 396.228 123.245 397.32 118.877C397.211 116.116 399.026 113.448 397.122 111.507Z" fill="#2F2E41"/>
<g clip-path="url(#clip0_66_1277)">
<path d="M112.247 157.106C110.498 155.356 108.071 154.614 104.954 155.45L93.8405 144.325L93.9874 143.769C94.6275 141.368 93.9359 138.786 92.183 137.033C90.3983 135.247 87.861 134.592 85.4614 135.251C85.1193 135.345 84.8529 135.614 84.7623 135.957C84.6716 136.3 84.771 136.665 85.0218 136.916L87.6978 139.592C88.4801 140.376 88.4725 141.632 87.6997 142.407C86.9331 143.175 85.6444 143.174 84.8808 142.409L82.2043 139.732C81.9533 139.481 81.5876 139.382 81.2445 139.474C80.9013 139.565 80.6334 139.832 80.5397 140.174C79.8902 142.547 80.5292 145.1 82.3225 146.894C84.0707 148.643 86.4945 149.387 89.613 148.55L100.727 159.675C99.898 162.791 100.613 165.194 102.386 166.967C104.173 168.755 106.711 169.405 109.106 168.749C109.448 168.655 109.714 168.386 109.805 168.043C109.896 167.699 109.796 167.335 109.546 167.084L106.87 164.408C106.088 163.624 106.095 162.368 106.868 161.593C107.644 160.821 108.93 160.833 109.687 161.592L112.364 164.268C112.615 164.519 112.981 164.618 113.324 164.526C113.667 164.435 113.935 164.168 114.028 163.826C114.678 161.453 114.039 158.899 112.247 157.106Z" fill="#20A6AF"/>
<path d="M90.9381 152.703L81.4426 162.2C79.8886 163.754 79.8886 166.281 81.4426 167.835C82.9966 169.388 85.5236 169.388 87.0775 167.835L96.5728 158.338L90.9381 152.703ZM86.1417 164.743C85.7525 165.132 85.1223 165.132 84.7332 164.743C84.3441 164.354 84.3441 163.724 84.7332 163.335L90.7748 157.292C91.1639 156.903 91.7943 156.903 92.1833 157.292C92.5724 157.681 92.5724 158.311 92.1833 158.7L86.1417 164.743Z" fill="#20A6AF"/>
<path d="M113.984 137.009L112.267 135.292C111.944 134.969 111.442 134.907 111.05 135.142L105.768 138.311C105.212 138.644 105.118 139.411 105.576 139.869L105.996 140.29L99.2906 146.968L102.109 149.786L108.814 143.108L109.407 143.7C109.865 144.158 110.632 144.064 110.965 143.508L114.134 138.226C114.369 137.834 114.307 137.332 113.984 137.009Z" fill="#20A6AF"/>
</g>
<defs>
<clipPath id="clip0_66_1277">
<rect width="34" height="34" fill="white" transform="translate(80.2766 135)"/>
</clipPath>
</defs>
</svg>
