<svg width="450" height="350" viewBox="0 0 450 350" fill="none" xmlns="http://www.w3.org/2000/svg">
<path d="M302.001 291H49.001C42.9031 290.993 37.0569 288.568 32.7451 284.256C28.4332 279.944 26.0078 274.098 26.001 268V123C26.0079 116.902 28.4333 111.056 32.7452 106.744C37.057 102.432 42.9031 100.007 49.001 100H302.001C308.099 100.007 313.945 102.432 318.257 106.744C322.569 111.056 324.994 116.902 325.001 123V268C324.994 274.098 322.569 279.944 318.257 284.256C313.945 288.568 308.099 290.993 302.001 291Z" fill="#F2F2F2"/>
<path d="M302.001 291H49.001C42.9031 290.993 37.0569 288.568 32.7451 284.256C28.4332 279.944 26.0078 274.098 26.001 268V123C26.0079 116.902 28.4333 111.056 32.7452 106.744C37.057 102.432 42.9031 100.007 49.001 100H302.001C308.099 100.007 313.945 102.432 318.257 106.744C322.569 111.056 324.994 116.902 325.001 123V268C324.994 274.098 322.569 279.944 318.257 284.256C313.945 288.568 308.099 290.993 302.001 291ZM49.001 102C43.4333 102.006 38.0955 104.221 34.1586 108.158C30.2217 112.095 28.0072 117.432 28.001 123V268C28.0073 273.568 30.2218 278.905 34.1587 282.842C38.0956 286.779 43.4334 288.994 49.001 289H302.001C307.569 288.994 312.906 286.779 316.843 282.842C320.78 278.905 322.995 273.568 323.001 268V123C322.995 117.432 320.78 112.095 316.843 108.158C312.906 104.221 307.569 102.006 302.001 102H49.001Z" fill="#E3E7EC"/>
<path d="M323.002 205.339H27C26.7348 205.339 26.4804 205.234 26.2929 205.046C26.1053 204.859 26 204.605 26 204.339C26 204.074 26.1053 203.82 26.2929 203.632C26.4804 203.445 26.7348 203.339 27 203.339H323.002C323.267 203.339 323.521 203.445 323.709 203.632C323.896 203.82 324.002 204.074 324.002 204.339C324.002 204.605 323.896 204.859 323.709 205.046C323.521 205.234 323.267 205.339 323.002 205.339Z" fill="#E3E7EC"/>
<path d="M181.591 62.6378C196.403 62.6378 208.41 50.6306 208.41 35.8189C208.41 21.0072 196.403 9 181.591 9C166.78 9 154.772 21.0072 154.772 35.8189C154.772 50.6306 166.78 62.6378 181.591 62.6378Z" fill="#0B9BE3"/>
<path d="M186.754 41.0192C186.817 40.3611 186.798 39.7055 186.703 39.0653L188.182 38.4058C188.043 37.689 187.823 36.9819 187.518 36.2976C187.213 35.6138 186.835 34.9776 186.396 34.3937L184.915 35.0528C184.503 34.5544 184.029 34.1021 183.498 33.708L184.078 32.1957C183.472 31.7881 182.817 31.4435 182.117 31.1751C181.421 30.9077 180.706 30.7228 179.978 30.6204L179.397 32.1341C178.739 32.0715 178.084 32.0904 177.443 32.1856L176.788 30.7131C175.323 31.0009 173.955 31.6221 172.78 32.5097L173.431 33.9725C172.932 34.3845 172.479 34.8596 172.085 35.3901L170.577 34.8116C170.165 35.4163 169.82 36.0719 169.551 36.7708C169.285 37.4696 169.102 38.1869 169 38.9096L170.512 39.49C170.45 40.1481 170.469 40.8037 170.564 41.4439L169.084 42.1029C169.224 42.8202 169.444 43.5268 169.748 44.2111C170.054 44.8954 170.432 45.5311 170.871 46.115L172.351 45.4559C172.763 45.9548 173.237 46.4071 173.769 46.8012L173.188 48.3144C173.794 48.7226 174.45 49.0666 175.149 49.335C175.845 49.6024 176.561 49.7873 177.288 49.8897L177.869 48.376C178.527 48.4382 179.183 48.4192 179.823 48.3241L180.479 49.7961C181.943 49.5083 183.313 48.8871 184.487 47.9994L183.836 46.5367C184.334 46.1247 184.787 45.6501 185.181 45.1191L186.689 45.6976C187.1 45.0929 187.445 44.4373 187.714 43.7389C187.982 43.04 188.164 42.3223 188.267 41.5991L186.754 41.0192ZM182.734 41.8282C181.865 44.0937 179.325 45.2244 177.059 44.3552C174.796 43.4865 173.663 40.9464 174.532 38.6815C175.401 36.4165 177.942 35.2857 180.206 36.1539C182.471 37.0227 183.603 39.5638 182.734 41.8282Z" fill="white"/>
<path d="M194.947 28.9601C194.947 28.667 194.917 28.3802 194.866 28.1016L196 27.4464C195.725 26.402 195.18 25.4668 194.434 24.7282L193.297 25.3848C192.863 25.0131 192.36 24.7219 191.81 24.5278V23.216C191.309 23.0786 190.785 23 190.242 23C189.699 23 189.175 23.0796 188.673 23.216V24.5282C188.123 24.7224 187.621 25.014 187.187 25.3853L186.049 24.7287C185.304 25.4673 184.758 26.4025 184.483 27.4469L185.618 28.1021C185.566 28.3811 185.536 28.667 185.536 28.9606C185.536 29.2542 185.566 29.5405 185.618 29.8191L184.483 30.4743C184.758 31.5187 185.304 32.4544 186.049 33.1925L187.186 32.5359C187.621 32.9076 188.123 33.1988 188.673 33.393V34.7052C189.174 34.8421 189.698 34.9212 190.241 34.9212C190.784 34.9212 191.309 34.8416 191.81 34.7052V33.393C192.36 33.1988 192.862 32.9072 193.296 32.5359L194.433 33.1925C195.179 32.4539 195.725 31.5187 195.999 30.4743L194.865 29.8191C194.917 29.5396 194.947 29.2537 194.947 28.9601ZM190.242 31.1566C189.029 31.1566 188.045 30.1734 188.045 28.9606C188.045 27.7478 189.029 26.7641 190.242 26.7641C191.454 26.7641 192.438 27.7473 192.438 28.9601C192.438 30.1729 191.454 31.1566 190.242 31.1566Z" fill="white"/>
<path d="M232.948 112.424H118.054C115.255 112.424 112.571 111.313 110.592 109.333C108.613 107.354 107.501 104.67 107.501 101.871C107.501 99.0723 108.613 96.3881 110.592 94.409C112.571 92.4299 115.255 91.318 118.054 91.318H232.948C234.334 91.3166 235.708 91.5886 236.989 92.1184C238.271 92.6481 239.436 93.4252 240.417 94.4053C241.398 95.3854 242.176 96.5493 242.707 97.8303C243.238 99.1113 243.511 100.484 243.511 101.871C243.511 103.258 243.238 104.631 242.707 105.912C242.176 107.193 241.398 108.357 240.417 109.337C239.436 110.317 238.271 111.094 236.989 111.624C235.708 112.154 234.334 112.426 232.948 112.424Z" fill="#0B9BE3"/>
<path d="M185.001 145H145.001C143.94 145 142.923 144.579 142.173 143.828C141.422 143.078 141.001 142.061 141.001 141C141.001 139.939 141.422 138.922 142.173 138.172C142.923 137.421 143.94 137 145.001 137H185.001C186.062 137 187.079 137.421 187.829 138.172C188.58 138.922 189.001 139.939 189.001 141C189.001 142.061 188.58 143.078 187.829 143.828C187.079 144.579 186.062 145 185.001 145Z" fill="#CCCCCC"/>
<g opacity="0.5">
<path d="M102.922 249.3H71.678C71.4128 249.3 71.1584 249.195 70.9709 249.007C70.7833 248.82 70.678 248.565 70.678 248.3C70.678 248.035 70.7833 247.78 70.9709 247.593C71.1584 247.405 71.4128 247.3 71.678 247.3H102.922C103.187 247.3 103.442 247.405 103.629 247.593C103.817 247.78 103.922 248.035 103.922 248.3C103.922 248.565 103.817 248.82 103.629 249.007C103.442 249.195 103.187 249.3 102.922 249.3Z" fill="#CCCCCC"/>
<path d="M102.922 265.3H71.678C71.4128 265.3 71.1584 265.195 70.9709 265.007C70.7833 264.82 70.678 264.565 70.678 264.3C70.678 264.035 70.7833 263.78 70.9709 263.593C71.1584 263.405 71.4128 263.3 71.678 263.3H102.922C103.187 263.3 103.442 263.405 103.629 263.593C103.817 263.78 103.922 264.035 103.922 264.3C103.922 264.565 103.817 264.82 103.629 265.007C103.442 265.195 103.187 265.3 102.922 265.3Z" fill="#CCCCCC"/>
<path d="M273.922 249.3H242.678C242.413 249.3 242.158 249.195 241.971 249.007C241.783 248.82 241.678 248.565 241.678 248.3C241.678 248.035 241.783 247.78 241.971 247.593C242.158 247.405 242.413 247.3 242.678 247.3H273.922C274.187 247.3 274.442 247.405 274.629 247.593C274.817 247.78 274.922 248.035 274.922 248.3C274.922 248.565 274.817 248.82 274.629 249.007C274.442 249.195 274.187 249.3 273.922 249.3Z" fill="#CCCCCC"/>
<path d="M273.922 265.3H242.678C242.413 265.3 242.158 265.195 241.971 265.007C241.783 264.82 241.678 264.565 241.678 264.3C241.678 264.035 241.783 263.78 241.971 263.593C242.158 263.405 242.413 263.3 242.678 263.3H273.922C274.187 263.3 274.442 263.405 274.629 263.593C274.817 263.78 274.922 264.035 274.922 264.3C274.922 264.565 274.817 264.82 274.629 265.007C274.442 265.195 274.187 265.3 273.922 265.3Z" fill="#CCCCCC"/>
<path d="M216.922 249.3H185.678C185.413 249.3 185.158 249.195 184.971 249.007C184.783 248.82 184.678 248.565 184.678 248.3C184.678 248.035 184.783 247.78 184.971 247.593C185.158 247.405 185.413 247.3 185.678 247.3H216.922C217.187 247.3 217.442 247.405 217.629 247.593C217.817 247.78 217.922 248.035 217.922 248.3C217.922 248.565 217.817 248.82 217.629 249.007C217.442 249.195 217.187 249.3 216.922 249.3Z" fill="#CCCCCC"/>
<path d="M216.922 265.3H185.678C185.413 265.3 185.158 265.195 184.971 265.007C184.783 264.82 184.678 264.565 184.678 264.3C184.678 264.035 184.783 263.78 184.971 263.593C185.158 263.405 185.413 263.3 185.678 263.3H216.922C217.187 263.3 217.442 263.405 217.629 263.593C217.817 263.78 217.922 264.035 217.922 264.3C217.922 264.565 217.817 264.82 217.629 265.007C217.442 265.195 217.187 265.3 216.922 265.3Z" fill="#CCCCCC"/>
<path d="M159.922 249.3H128.678C128.413 249.3 128.158 249.195 127.971 249.007C127.783 248.82 127.678 248.565 127.678 248.3C127.678 248.035 127.783 247.78 127.971 247.593C128.158 247.405 128.413 247.3 128.678 247.3H159.922C160.187 247.3 160.442 247.405 160.629 247.593C160.817 247.78 160.922 248.035 160.922 248.3C160.922 248.565 160.817 248.82 160.629 249.007C160.442 249.195 160.187 249.3 159.922 249.3Z" fill="#CCCCCC"/>
<path d="M159.922 265.3H128.678C128.413 265.3 128.158 265.195 127.971 265.007C127.783 264.82 127.678 264.565 127.678 264.3C127.678 264.035 127.783 263.78 127.971 263.593C128.158 263.405 128.413 263.3 128.678 263.3H159.922C160.187 263.3 160.442 263.405 160.629 263.593C160.817 263.78 160.922 264.035 160.922 264.3C160.922 264.565 160.817 264.82 160.629 265.007C160.442 265.195 160.187 265.3 159.922 265.3Z" fill="#CCCCCC"/>
<path d="M195.001 230.3H155.001C153.94 230.3 152.923 229.879 152.173 229.128C151.422 228.378 151.001 227.361 151.001 226.3C151.001 225.239 151.422 224.222 152.173 223.472C152.923 222.721 153.94 222.3 155.001 222.3H195.001C196.062 222.3 197.079 222.721 197.829 223.472C198.58 224.222 199.001 225.239 199.001 226.3C199.001 227.361 198.58 228.378 197.829 229.128C197.079 229.879 196.062 230.3 195.001 230.3Z" fill="#CCCCCC"/>
</g>
<path d="M271.001 167H144.001C142.94 167 141.923 166.579 141.173 165.828C140.422 165.078 140.001 164.061 140.001 163C140.001 161.939 140.422 160.922 141.173 160.172C141.923 159.421 142.94 159 144.001 159H271.001C272.062 159 273.079 159.421 273.829 160.172C274.58 160.922 275.001 161.939 275.001 163C275.001 164.061 274.58 165.078 273.829 165.828C273.079 166.579 272.062 167 271.001 167Z" fill="#CCCCCC"/>
<path d="M410.672 217.434L406.834 179.041L405.821 163.24L416.564 161.232C416.564 161.232 418.173 172.095 419.58 178.47C420.969 184.76 417.73 216.592 417.644 217.431C418.433 218.16 418.989 219.12 419.239 220.182C419.489 221.245 419.421 222.361 419.043 223.383C418.666 224.405 417.997 225.285 417.126 225.905C416.254 226.526 415.221 226.858 414.162 226.859C413.104 226.859 412.071 226.528 411.198 225.908C410.326 225.288 409.657 224.41 409.279 223.388C408.9 222.367 408.831 221.25 409.08 220.187C409.329 219.124 409.884 218.164 410.672 217.434Z" fill="#FFB8B8"/>
<path d="M383.178 331.719L377.85 332.978L370.617 312.34L378.48 310.482L383.178 331.719Z" fill="#FFB6B6"/>
<path d="M384.141 329.601L382.781 329.92L382.641 329.955L376.423 328.907L376.242 328.877L373.646 332.079C371.873 332.499 370.333 333.629 369.365 335.221C368.398 336.813 368.082 338.737 368.487 340.57L368.495 340.608L368.541 340.796L369.332 340.608L385.719 336.734L384.141 329.601Z" fill="#2F2E41"/>
<path d="M414.939 335.319H409.473L406.874 313.534L414.94 313.535L414.939 335.319Z" fill="#FFB6B6"/>
<path d="M414.796 333.476L414.318 333.276L408.962 331.023L408.789 330.951L405.571 333.476C404.67 333.476 403.778 333.659 402.946 334.015C402.114 334.371 401.357 334.892 400.72 335.55C400.083 336.208 399.578 336.99 399.233 337.849C398.888 338.709 398.71 339.631 398.71 340.562V340.792L413.795 340.796H416.333V333.476H414.796Z" fill="#2F2E41"/>
<path d="M406.626 218.725L411.223 263.854C411.223 263.854 417.342 309.04 416.193 315.275C415.044 321.51 416.481 322.401 416.481 322.401L405.995 321.629C405.995 321.629 406.282 317.769 404.558 315.988C402.835 314.207 403.696 308.862 403.696 308.862L383.356 235.352L371.002 273.948C371.002 273.948 378.807 305.248 378.519 305.842C378.232 306.436 383.464 319.468 383.464 319.468L371.758 323.48C371.758 323.48 373.195 318.729 371.184 317.245C369.173 315.76 367.449 316.948 369.173 314.276C370.897 311.604 355.592 291.98 355.928 279.333C356.029 275.528 356.152 271.446 356.299 267.264C357.077 245.133 358.547 220.196 361.234 218.726C366.118 216.053 406.626 218.725 406.626 218.725Z" fill="#2F2E41"/>
<path d="M384.858 127.352C391.102 127.352 396.164 122.121 396.164 115.668C396.164 109.215 391.102 103.984 384.858 103.984C378.614 103.984 373.552 109.215 373.552 115.668C373.552 122.121 378.614 127.352 384.858 127.352Z" fill="#FFB8B8"/>
<path d="M422.608 187.039L407.256 191.066L407.362 186.613L406.197 185.336L403.869 172.733L401.397 140.103L409.881 144.753L409.891 144.761C411.372 146.446 412.611 148.341 413.57 150.391C416.768 157.109 419.84 171.909 421.448 180.504C421.503 180.684 421.61 180.843 421.754 180.96C422.552 181.717 423.072 182.735 423.228 183.842C423.383 184.95 423.164 186.079 422.608 187.039Z" fill="#497AD4"/>
<path d="M331.886 201.478C331.886 201.478 353.076 178.39 353.274 177.955C354.754 166.339 359.011 161.215 359.649 161.771L370.638 165.705C370.638 165.705 367.369 176.401 365.156 182.754C363.042 188.825 338.671 203.653 338.264 204.385C338.701 205.382 338.835 206.492 338.648 207.568C338.461 208.645 337.962 209.637 337.217 210.414C336.473 211.192 335.517 211.717 334.477 211.921C333.437 212.125 332.362 211.997 331.394 211.556C330.426 211.114 329.61 210.38 329.054 209.449C328.499 208.518 328.23 207.434 328.283 206.342C328.337 205.249 328.709 204.2 329.353 203.331C329.996 202.462 330.879 201.816 331.886 201.478Z" fill="#FFB8B8"/>
<path d="M375.916 142.205C375.916 142.205 366.402 137.386 362.713 146.85C360.69 152.193 355.516 165.159 352.938 173.141C352.921 173.192 352.897 173.24 352.867 173.285C352.178 174.343 351.806 175.589 351.798 176.865C351.799 176.958 351.789 177.051 351.77 177.142C351.77 177.142 362.224 179.247 365.334 184.91L366.567 183.527L366.787 182.558L375.916 142.205Z" fill="#497AD4"/>
<path d="M410.534 223.644C388.639 228.317 359.623 220.283 359.623 220.283L367.363 185.609L364.611 149.322C364.275 144.884 366.721 140.725 370.526 139.251L375.779 137.217L380.122 130.792L392.526 131.213L397.484 137.958L401.397 140.104L409.881 144.753L409.918 144.773V144.792L407.256 171.479L405.65 187.569C405.65 187.569 410.526 205.666 409.526 208.067C408.525 210.463 409.395 209.305 409.638 210.586C409.881 211.867 410.624 211.948 410.736 214.472C410.851 216.992 410.534 223.644 410.534 223.644Z" fill="#497AD4"/>
<path d="M397.122 111.507C396.229 110.597 397.574 108.185 397.32 106.915C397.029 105.459 395.476 105.416 395.105 103.979C394.707 102.433 393.113 101.592 391.639 101.102C387.862 99.8526 383.831 99.6619 379.959 100.549C378.246 100.981 376.558 101.518 374.906 102.157C373.766 102.572 374.866 101.444 373.725 101.858C373.293 101.958 372.912 102.219 372.656 102.592C372.451 102.992 372.727 103.633 373.159 103.552C371.766 104.186 370.374 104.821 368.982 105.455C369.763 106.301 370.544 107.146 371.324 107.991C370.214 107.665 369.031 109.033 369.468 110.136C369.645 110.485 369.9 110.784 370.213 111.007C370.525 111.231 370.886 111.373 371.264 111.42C372.518 111.673 371.566 112.906 372.844 112.882C374.121 112.858 383.029 110.152 383.65 111.306C384.093 112.127 384.044 113.216 384.675 113.893C385.483 114.759 386.894 114.442 387.922 113.878C388.95 113.314 389.993 112.539 391.15 112.675C392.357 112.816 393.271 115.122 393.568 116.34C393.865 117.557 393.678 118.839 393.488 120.079C393.24 121.709 390.751 123.338 390.502 124.967C393.265 125.757 396.228 123.245 397.32 118.877C397.211 116.116 399.026 113.448 397.122 111.507Z" fill="#2F2E41"/>
<g clip-path="url(#clip0_66_1329)">
<path d="M112.247 157.106C110.498 155.356 108.071 154.614 104.954 155.45L93.8405 144.325L93.9874 143.769C94.6275 141.368 93.9359 138.786 92.183 137.033C90.3983 135.247 87.861 134.592 85.4614 135.251C85.1193 135.345 84.8529 135.614 84.7623 135.957C84.6716 136.3 84.771 136.665 85.0218 136.916L87.6978 139.592C88.4801 140.376 88.4725 141.632 87.6997 142.407C86.9331 143.175 85.6444 143.174 84.8808 142.409L82.2043 139.732C81.9533 139.481 81.5876 139.382 81.2445 139.474C80.9013 139.565 80.6334 139.832 80.5397 140.174C79.8902 142.547 80.5292 145.1 82.3225 146.894C84.0707 148.643 86.4945 149.387 89.613 148.55L100.727 159.675C99.898 162.791 100.613 165.194 102.386 166.967C104.173 168.755 106.711 169.405 109.106 168.749C109.448 168.655 109.714 168.386 109.805 168.043C109.896 167.699 109.796 167.335 109.546 167.084L106.87 164.408C106.088 163.624 106.095 162.368 106.868 161.593C107.644 160.821 108.93 160.833 109.687 161.592L112.364 164.268C112.615 164.519 112.981 164.618 113.324 164.526C113.667 164.435 113.935 164.168 114.028 163.826C114.678 161.453 114.039 158.899 112.247 157.106Z" fill="#0B9BE3"/>
<path d="M90.9381 152.703L81.4426 162.2C79.8886 163.754 79.8886 166.281 81.4426 167.834C82.9966 169.388 85.5236 169.388 87.0775 167.834L96.5728 158.338L90.9381 152.703ZM86.1417 164.743C85.7525 165.132 85.1223 165.132 84.7332 164.743C84.3441 164.354 84.3441 163.724 84.7332 163.335L90.7748 157.292C91.1639 156.903 91.7943 156.903 92.1833 157.292C92.5724 157.681 92.5724 158.311 92.1833 158.7L86.1417 164.743Z" fill="#0B9BE3"/>
<path d="M113.984 137.009L112.267 135.292C111.944 134.969 111.442 134.907 111.05 135.142L105.768 138.311C105.212 138.644 105.118 139.411 105.576 139.869L105.996 140.29L99.2906 146.968L102.109 149.786L108.814 143.108L109.407 143.7C109.865 144.158 110.632 144.064 110.965 143.508L114.134 138.226C114.369 137.834 114.307 137.332 113.984 137.009Z" fill="#0B9BE3"/>
</g>
<defs>
<clipPath id="clip0_66_1329">
<rect width="34" height="34" fill="white" transform="translate(80.2766 135)"/>
</clipPath>
</defs>
</svg>
