<svg width="450" height="350" viewBox="0 0 450 350" fill="none" xmlns="http://www.w3.org/2000/svg">
<path d="M353.078 206.505L348.914 166.197L347.815 149.607L359.47 147.5C359.47 147.5 361.216 158.904 362.743 165.597C364.25 172.201 360.735 205.62 360.642 206.501C361.498 207.267 362.102 208.274 362.373 209.39C362.644 210.506 362.57 211.677 362.16 212.75C361.751 213.823 361.025 214.746 360.08 215.398C359.134 216.05 358.013 216.399 356.865 216.399C355.717 216.4 354.595 216.052 353.649 215.401C352.703 214.75 351.976 213.828 351.566 212.755C351.156 211.683 351.08 210.511 351.35 209.395C351.62 208.279 352.223 207.271 353.078 206.505Z" fill="#FFB8B8"/>
<path d="M323.248 326.489L317.467 327.81L309.62 306.144L318.151 304.193L323.248 326.489Z" fill="#FFB6B6"/>
<path d="M324.292 324.265L322.817 324.601L322.665 324.636L315.919 323.537L315.722 323.505L312.906 326.867C310.982 327.307 309.311 328.494 308.262 330.165C307.212 331.837 306.869 333.857 307.309 335.781L307.318 335.822L307.367 336.018L308.225 335.822L326.005 331.753L324.292 324.265Z" fill="#2F2E41"/>
<path d="M357.707 330.268H351.778L348.957 307.397L357.708 307.398L357.707 330.268Z" fill="#FFB6B6"/>
<path d="M357.553 328.334L357.034 328.123L351.222 325.759L351.035 325.683L347.543 328.334C346.566 328.333 345.598 328.525 344.695 328.899C343.792 329.273 342.972 329.821 342.281 330.511C341.589 331.202 341.041 332.022 340.667 332.925C340.293 333.828 340.1 334.795 340.1 335.773V336.014L356.466 336.018H359.22V328.334H357.553Z" fill="#2F2E41"/>
<path d="M348.689 207.86L353.676 255.239C353.676 255.239 360.315 302.679 359.068 309.225C357.821 315.771 359.38 316.706 359.38 316.706L348.003 315.896C348.003 315.896 348.315 311.843 346.445 309.973C344.575 308.103 345.51 302.492 345.51 302.492L323.441 225.316L310.037 265.837C310.037 265.837 318.505 298.698 318.193 299.321C317.881 299.945 323.558 313.627 323.558 313.627L310.858 317.838C310.858 317.838 312.416 312.851 310.234 311.293C308.052 309.734 306.182 310.981 308.052 308.176C309.923 305.37 293.317 284.768 293.682 271.49C293.792 267.496 293.925 263.21 294.084 258.819C294.929 235.585 296.523 209.404 299.439 207.86C304.738 205.055 348.689 207.86 348.689 207.86Z" fill="#2F2E41"/>
<path d="M325.07 111.93C331.845 111.93 337.337 106.438 337.337 99.6631C337.337 92.8885 331.845 87.3965 325.07 87.3965C318.295 87.3965 312.803 92.8885 312.803 99.6631C312.803 106.438 318.295 111.93 325.07 111.93Z" fill="#FFB8B8"/>
<path d="M366.028 174.593L349.371 178.821L349.487 174.146L348.223 172.805L345.697 159.573L343.015 125.317L352.219 130.199L352.231 130.207C353.838 131.976 355.182 133.966 356.222 136.117C359.692 143.171 363.025 158.708 364.77 167.733C364.83 167.922 364.945 168.089 365.102 168.211C365.967 169.006 366.532 170.075 366.701 171.237C366.87 172.4 366.632 173.585 366.028 174.593Z" fill="#497AD4"/>
<path d="M267.597 189.752C267.597 189.752 290.588 165.513 290.802 165.057C292.408 152.861 297.027 147.481 297.72 148.065L309.642 152.195C309.642 152.195 306.096 163.425 303.695 170.095C301.4 176.469 274.959 192.036 274.518 192.805C274.991 193.851 275.136 195.016 274.934 196.146C274.731 197.277 274.19 198.319 273.382 199.135C272.574 199.951 271.537 200.502 270.409 200.716C269.281 200.93 268.114 200.796 267.063 200.333C266.013 199.87 265.127 199.098 264.525 198.121C263.922 197.143 263.631 196.006 263.688 194.859C263.746 193.712 264.151 192.61 264.849 191.698C265.547 190.786 266.505 190.108 267.597 189.752Z" fill="#FFB8B8"/>
<path d="M315.369 127.523C315.369 127.523 305.047 122.465 301.043 132.4C298.849 138.009 293.235 151.623 290.438 160.003C290.419 160.056 290.394 160.107 290.362 160.153C289.613 161.265 289.21 162.572 289.201 163.912C289.202 164.01 289.192 164.107 289.171 164.203C289.171 164.203 300.514 166.412 303.887 172.358L305.226 170.906L305.463 169.888L315.369 127.523Z" fill="#497AD4"/>
<path d="M352.928 213.024C329.172 217.93 297.691 209.496 297.691 209.496L306.089 173.092L303.103 134.995C302.739 130.336 305.392 125.969 309.52 124.422L315.22 122.287L319.932 115.542L333.389 115.983L338.769 123.065L343.015 125.317L352.219 130.199L352.26 130.219V130.239L349.371 158.257L347.629 175.15C347.629 175.15 352.92 194.15 351.834 196.67C350.748 199.185 351.692 197.97 351.956 199.315C352.219 200.66 353.025 200.745 353.147 203.395C353.272 206.04 352.928 213.024 352.928 213.024Z" fill="#497AD4"/>
<path d="M338.377 95.295C337.408 94.3387 338.867 91.807 338.591 90.4734C338.275 88.9445 336.59 88.8998 336.188 87.3911C335.756 85.7682 334.027 84.8847 332.428 84.3703C328.33 83.059 323.957 82.8587 319.756 83.7899C317.896 84.2439 316.066 84.8078 314.273 85.4788C313.036 85.9142 314.229 84.7292 312.992 85.1647C312.523 85.2691 312.11 85.5433 311.831 85.9345C311.609 86.355 311.909 87.0277 312.377 86.9425C310.866 87.6087 309.356 88.2748 307.845 88.941C308.692 89.8285 309.54 90.716 310.387 91.6035C309.182 91.2607 307.898 92.6967 308.373 93.8554C308.564 94.2212 308.841 94.535 309.181 94.7699C309.52 95.0047 309.911 95.1536 310.321 95.2036C311.682 95.4684 310.649 96.7634 312.035 96.7381C313.421 96.7129 323.086 93.8718 323.76 95.0833C324.24 95.9459 324.187 97.0886 324.872 97.7993C325.749 98.7086 327.279 98.376 328.395 97.7841C329.51 97.1921 330.642 96.3785 331.897 96.5205C333.207 96.6686 334.198 99.0898 334.521 100.368C334.843 101.647 334.639 102.992 334.434 104.294C334.164 106.005 331.464 107.716 331.194 109.426C334.191 110.255 337.406 107.618 338.591 103.032C338.473 100.133 340.442 97.3328 338.377 95.295Z" fill="#2F2E41"/>
<path d="M248.22 45.7328C254.171 45.7328 258.996 41.1181 258.996 35.4255C258.996 29.733 254.171 25.1183 248.22 25.1183C242.269 25.1183 237.444 29.733 237.444 35.4255C237.444 41.1181 242.269 45.7328 248.22 45.7328Z" fill="#0B9BE3"/>
<path d="M247.304 39.1737C247.086 39.174 246.873 39.1023 246.698 38.9693L246.687 38.961L244.401 37.1891C243.956 36.8432 243.872 36.1971 244.213 35.7459C244.555 35.2947 245.192 35.2094 245.637 35.5553L247.118 36.7058L250.616 32.0805C250.957 31.6295 251.594 31.5442 252.039 31.8899L252.017 31.9207L252.04 31.8901C252.484 32.2363 252.568 32.8819 252.228 33.333L248.113 38.771C247.92 39.025 247.622 39.1734 247.305 39.1724L247.304 39.1737Z" fill="white"/>
<path d="M248.22 116.946C254.171 116.946 258.996 112.332 258.996 106.639C258.996 100.947 254.171 96.332 248.22 96.332C242.269 96.332 237.444 100.947 237.444 106.639C237.444 112.332 242.269 116.946 248.22 116.946Z" fill="#0B9BE3"/>
<path d="M247.304 110.387C247.086 110.388 246.873 110.307 246.698 110.157L246.687 110.148L244.401 108.155C243.956 107.766 243.872 107.039 244.213 106.531C244.555 106.023 245.192 105.927 245.637 106.317L247.118 107.611L250.616 102.407C250.957 101.9 251.594 101.804 252.039 102.193L252.017 102.228L252.04 102.193C252.484 102.583 252.568 103.309 252.228 103.817L248.113 109.934C247.92 110.22 247.622 110.387 247.305 110.386L247.304 110.387Z" fill="white"/>
<path opacity="0.07" d="M208.397 130.065H6V83.2137H208.397V130.065Z" fill="#474748"/>
<path d="M35.1473 98.2061C34.0572 98.2061 33.1736 99.2548 33.1736 100.549C33.1736 101.842 34.0572 102.891 35.1473 102.891H179.249C180.339 102.891 181.223 101.842 181.223 100.549C181.223 99.2549 180.339 98.2061 179.249 98.2061H35.1473Z" fill="#0B9BE3"/>
<path d="M35.1625 110.387C34.0663 110.385 33.1759 111.222 33.1736 112.257C33.1713 113.292 34.058 114.133 35.1541 114.135H126.765C127.861 114.135 128.75 113.296 128.75 112.261C128.75 111.226 127.861 110.387 126.765 110.387L35.1625 110.387Z" fill="#0B9BE3"/>
<path d="M208.397 130.065H6V83.2137H208.397V130.065ZM9.32707 126.718H205.07V86.5602H9.32707V126.718Z" fill="#FBFBFB"/>
<path opacity="0.07" d="M208.397 200.341H6V154.427H208.397V200.341Z" fill="#474748"/>
<path d="M35.1473 169.42C34.0572 169.42 33.1736 170.259 33.1736 171.294C33.1736 172.329 34.0572 173.168 35.1473 173.168H179.249C180.339 173.168 181.223 172.329 181.223 171.294C181.223 170.259 180.339 169.42 179.249 169.42H35.1473Z" fill="#E6E6E6"/>
<path d="M35.1625 181.601C34.0664 181.599 33.1759 182.436 33.1736 183.471C33.1713 184.506 34.058 185.347 35.1541 185.349H126.765C127.861 185.349 128.75 184.51 128.75 183.475C128.75 182.44 127.861 181.601 126.765 181.601H35.1625Z" fill="#E6E6E6"/>
<path d="M208.397 200.341H6V154.427H208.397V200.341ZM9.32707 197.062H205.07V157.707H9.32707V197.062Z" fill="#FBFBFB"/>
<path opacity="0.07" d="M210.271 58.8511H7.87402V12H210.271V58.8511Z" fill="#474748"/>
<path d="M37.0178 26.9924C35.9277 26.9947 35.0456 28.0454 35.0476 29.3392C35.0496 30.6296 35.9305 31.6751 37.0178 31.6775H181.127C182.217 31.6751 183.099 30.6244 183.097 29.3307C183.095 28.0402 182.214 26.9947 181.127 26.9924H37.0178Z" fill="#0B9BE3"/>
<path d="M37.0169 39.1737C35.9316 39.1715 35.0499 40.0087 35.0476 41.0437C35.0453 42.0787 35.9233 42.9196 37.0086 42.9217H127.718C128.803 42.9236 129.685 42.0861 129.687 41.0511C129.689 40.0161 128.811 39.1755 127.725 39.1737C127.723 39.1736 127.72 39.1736 127.718 39.1737L37.0169 39.1737Z" fill="#0B9BE3"/>
<path d="M210.271 58.8511H7.87402V12H210.271V58.8511ZM11.2011 55.5046H206.944V15.3465H11.2011V55.5046Z" fill="#FBFBFB"/>
<path d="M253.307 215.334C259 215.334 263.614 210.719 263.614 205.027C263.614 199.334 259 194.719 253.307 194.719C247.614 194.719 243 199.334 243 205.027C243 210.719 247.614 215.334 253.307 215.334Z" fill="#0B9BE3"/>
<path d="M252.289 208.775C252.046 208.775 251.81 208.703 251.615 208.57L251.603 208.562L249.064 206.79C248.569 206.444 248.476 205.798 248.855 205.347C249.234 204.896 249.942 204.81 250.437 205.156L252.082 206.307L255.968 201.681C256.347 201.23 257.056 201.145 257.55 201.491L257.526 201.522L257.551 201.491C258.045 201.837 258.138 202.483 257.759 202.934L253.188 208.372C252.973 208.626 252.642 208.774 252.29 208.773L252.289 208.775Z" fill="white"/>
<path d="M442.967 337.744H231.44C231.134 337.744 230.885 337.495 230.885 337.189C230.885 336.882 231.134 336.633 231.44 336.633H442.967C443.274 336.633 443.522 336.882 443.522 337.189C443.522 337.495 443.274 337.744 442.967 337.744Z" fill="#CBCBCB"/>
</svg>
