<svg width="450" height="350" viewBox="0 0 450 350" fill="none" xmlns="http://www.w3.org/2000/svg">
<rect x="199.9" y="94.0534" width="76.3575" height="29.7288" rx="5" fill="#212F43"/>
<rect x="198.124" y="92.5288" width="76.3575" height="29.7288" rx="5" fill="#1E2A3B"/>
<g clip-path="url(#clip0_66_1173)">
<path d="M202.027 214.965L201.663 214.426C202.201 214.064 202.734 213.697 203.263 213.325L203.637 213.857C203.104 214.232 202.568 214.601 202.027 214.965Z" fill="#CCCCCC"/>
<path d="M149.585 231.153L149.581 230.503C150.895 230.494 152.224 230.457 153.53 230.394L153.561 231.043C152.246 231.107 150.909 231.144 149.585 231.153ZM145.609 231.1C144.289 231.055 142.953 230.983 141.638 230.883L141.687 230.235C142.993 230.334 144.32 230.406 145.631 230.45L145.609 231.1ZM157.527 230.769L157.469 230.122C158.774 230.005 160.094 229.858 161.394 229.687L161.479 230.331C160.17 230.504 158.841 230.651 157.527 230.769ZM137.679 230.502C136.365 230.348 135.04 230.165 133.74 229.957L133.843 229.315C135.134 229.521 136.45 229.704 137.755 229.857L137.679 230.502ZM165.409 229.728L165.297 229.088C166.587 228.862 167.891 228.606 169.172 228.326L169.311 228.961C168.021 229.243 166.708 229.501 165.409 229.728ZM129.827 229.247C128.533 228.984 127.228 228.69 125.947 228.373L126.103 227.742C127.375 228.057 128.672 228.349 129.956 228.61L129.827 229.247ZM173.177 228.031L173.012 227.402C174.279 227.069 175.557 226.704 176.809 226.318L177.001 226.939C175.74 227.328 174.453 227.696 173.177 228.031ZM122.098 227.334C120.83 226.963 119.551 226.559 118.298 226.134L118.506 225.519C119.751 225.941 121.021 226.342 122.281 226.71L122.098 227.334ZM180.775 225.687L180.558 225.075C181.793 224.636 183.035 224.165 184.251 223.675L184.494 224.277C183.27 224.771 182.019 225.245 180.775 225.687ZM114.552 224.776C113.318 224.298 112.078 223.789 110.868 223.261L111.127 222.665C112.33 223.189 113.561 223.695 114.786 224.17L114.552 224.776ZM188.15 222.713L187.882 222.121C189.077 221.579 190.276 221.005 191.445 220.415L191.738 220.996C190.561 221.59 189.354 222.167 188.15 222.713ZM107.251 221.593C106.063 221.014 104.871 220.403 103.709 219.775L104.017 219.203C105.172 219.826 106.356 220.434 107.536 221.008L107.251 221.593ZM195.25 219.13L194.933 218.562C196.078 217.923 197.225 217.251 198.341 216.565L198.682 217.119C197.558 217.809 196.403 218.486 195.25 219.13ZM100.246 217.81C99.112 217.135 97.9759 216.426 96.8689 215.702L97.2246 215.158C98.324 215.877 99.4523 216.581 100.578 217.251L100.246 217.81ZM93.5834 213.457C92.5102 212.689 91.4374 211.888 90.3949 211.076L90.7945 210.563C91.8299 211.37 92.8954 212.166 93.9615 212.928L93.5834 213.457ZM87.3086 208.565C86.3011 207.71 85.2987 206.823 84.3295 205.929L84.7704 205.451C85.733 206.339 86.7285 207.22 87.7291 208.069L87.3086 208.565ZM81.4631 203.171C80.5309 202.236 79.6059 201.27 78.7139 200.298L79.1928 199.858C80.0787 200.823 80.9974 201.784 81.9233 202.712L81.4631 203.171ZM76.0866 197.313C75.2365 196.306 74.3951 195.266 73.5859 194.222L74.0996 193.824C74.9034 194.86 75.739 195.893 76.5833 196.893L76.0866 197.313ZM71.2162 191.03C70.452 189.955 69.7002 188.849 68.9818 187.743L69.5268 187.389C70.2404 188.487 70.987 189.586 71.7461 190.654L71.2162 191.03ZM66.8866 184.366C66.2147 183.231 65.5579 182.067 64.9346 180.906L65.5073 180.598C66.1264 181.752 66.7786 182.908 67.446 184.035L66.8866 184.366ZM63.1294 177.367C62.5551 176.181 61.9982 174.966 61.4742 173.757L62.0707 173.499C62.5911 174.7 63.1441 175.906 63.7144 177.084L63.1294 177.367ZM59.9724 170.082C59.4991 168.851 59.0459 167.593 58.6252 166.344L59.2412 166.137C59.659 167.377 60.1091 168.626 60.5792 169.849L59.9724 170.082Z" fill="#768092"/>
<path d="M57.4253 162.515C57.2437 161.889 57.0684 161.261 56.8994 160.63L57.5273 160.462C57.6951 161.088 57.8691 161.712 58.0495 162.333L57.4253 162.515Z" fill="#CCCCCC"/>
<path d="M242.883 125.328C242.811 124.683 242.733 124.04 242.648 123.4L243.293 123.314C243.378 123.96 243.457 124.607 243.529 125.256L242.883 125.328Z" fill="#CCCCCC"/>
<path d="M234.473 177.742L233.889 177.456C234.448 176.316 234.99 175.148 235.502 173.984L236.097 174.246C235.582 175.418 235.035 176.594 234.473 177.742ZM237.578 170.686L236.973 170.449C237.436 169.266 237.882 168.058 238.298 166.857L238.912 167.069C238.494 168.279 238.045 169.495 237.578 170.686ZM240.098 163.401L239.475 163.214C239.842 161.995 240.188 160.754 240.503 159.525L241.133 159.687C240.815 160.924 240.467 162.174 240.098 163.401ZM242.015 155.934L241.38 155.798C241.645 154.555 241.889 153.29 242.104 152.037L242.745 152.147C242.528 153.409 242.283 154.683 242.015 155.934ZM243.32 148.335L242.675 148.251C242.839 146.993 242.979 145.712 243.092 144.444L243.74 144.502C243.626 145.778 243.485 147.068 243.32 148.335ZM244.005 140.654L243.356 140.623C243.418 139.356 243.455 138.068 243.467 136.794L244.117 136.8C244.105 138.082 244.068 139.379 244.005 140.654ZM243.425 132.964C243.386 131.693 243.321 130.407 243.231 129.141L243.879 129.095C243.97 130.37 244.035 131.665 244.075 132.944L243.425 132.964Z" fill="#768092"/>
<rect x="10.6045" y="105.551" width="111.991" height="50.7866" rx="5" fill="#212F43"/>
<rect x="8" y="102.947" width="111.991" height="50.7866" rx="5" fill="#1E2A3B"/>
<path d="M51.4134 136.382H48.5521V133.521C48.5521 132.994 48.1251 132.567 47.5983 132.567C47.0715 132.567 46.6445 132.994 46.6445 133.521V137.336C46.6445 137.863 47.0715 138.29 47.5983 138.29H51.4134C51.9402 138.29 52.3672 137.863 52.3672 137.336C52.3672 136.809 51.9402 136.382 51.4134 136.382Z" fill="#20A6AF"/>
<path d="M54.2747 131.947V116.289C54.2747 115.762 53.8477 115.336 53.3209 115.336H48.4885V114.318C48.4885 113.791 48.0615 113.364 47.5347 113.364C47.0079 113.364 46.5809 113.791 46.5809 114.318V115.336H42.7658V114.318C42.7658 113.791 42.3388 113.364 41.812 113.364C41.2852 113.364 40.8583 113.791 40.8583 114.318V115.336H37.0432V114.318C37.0432 113.791 36.6162 113.364 36.0894 113.364C35.5626 113.364 35.1356 113.791 35.1356 114.318V115.336H31.3205V114.318C31.3205 113.791 30.8935 113.364 30.3667 113.364C29.8399 113.364 29.4129 113.791 29.4129 114.318V115.336H24.5805C24.0537 115.336 23.6267 115.762 23.6267 116.289V141.151C23.6267 141.678 24.0537 142.105 24.5805 142.105H40.4643C42.0063 144.404 44.6284 145.92 47.5983 145.92C52.3314 145.92 56.1822 142.069 56.1822 137.336C56.1822 135.297 55.4669 133.421 54.2747 131.947ZM29.4129 117.243V118.197C29.4129 118.724 29.8399 119.151 30.3667 119.151C30.8935 119.151 31.3205 118.724 31.3205 118.197V117.243H35.1356V118.197C35.1356 118.724 35.5626 119.151 36.0894 119.151C36.6162 119.151 37.0432 118.724 37.0432 118.197V117.243H40.8583V118.197C40.8583 118.724 41.2852 119.151 41.812 119.151C42.3388 119.151 42.7658 118.724 42.7658 118.197V117.243H46.5809V118.197C46.5809 118.724 47.0079 119.151 47.5347 119.151C48.0615 119.151 48.4885 118.724 48.4885 118.197V117.243H52.3671V121.058H25.5343V117.243H29.4129ZM25.5343 140.197V122.966H52.3671V130.202C51.0023 129.287 49.3615 128.752 47.5983 128.752C44.5844 128.752 41.9288 130.314 40.3968 132.67C40.2679 132.605 40.1226 132.567 39.9681 132.567H38.0605C37.5337 132.567 37.1067 132.994 37.1067 133.521C37.1067 134.048 37.5337 134.475 38.0605 134.475H39.5053C39.29 135.082 39.141 135.721 39.0677 136.382H38.0605C37.5337 136.382 37.1067 136.809 37.1067 137.336C37.1067 137.863 37.5337 138.29 38.0605 138.29H39.0677C39.141 138.951 39.2897 139.59 39.5053 140.197H25.5343ZM47.5983 144.012C43.9168 144.012 40.9218 141.017 40.9218 137.336C40.9218 133.654 43.9168 130.659 47.5983 130.659C51.2797 130.659 54.2747 133.654 54.2747 137.336C54.2747 141.017 51.2797 144.012 47.5983 144.012Z" fill="#20A6AF"/>
<path d="M32.2742 124.937H30.3666C29.8398 124.937 29.4128 125.364 29.4128 125.891C29.4128 126.417 29.8398 126.844 30.3666 126.844H32.2742C32.801 126.844 33.2279 126.417 33.2279 125.891C33.2279 125.364 32.801 124.937 32.2742 124.937Z" fill="#20A6AF"/>
<path d="M32.2742 128.752H30.3666C29.8398 128.752 29.4128 129.179 29.4128 129.706C29.4128 130.233 29.8398 130.659 30.3666 130.659H32.2742C32.801 130.659 33.2279 130.233 33.2279 129.706C33.2279 129.179 32.801 128.752 32.2742 128.752Z" fill="#20A6AF"/>
<path d="M32.2742 132.567H30.3666C29.8398 132.567 29.4128 132.994 29.4128 133.521C29.4128 134.048 29.8398 134.475 30.3666 134.475H32.2742C32.801 134.475 33.2279 134.048 33.2279 133.521C33.2279 132.994 32.801 132.567 32.2742 132.567Z" fill="#20A6AF"/>
<path d="M38.0605 126.844H39.968C40.4948 126.844 40.9218 126.417 40.9218 125.891C40.9218 125.364 40.4948 124.937 39.968 124.937H38.0605C37.5337 124.937 37.1067 125.364 37.1067 125.891C37.1067 126.417 37.5337 126.844 38.0605 126.844Z" fill="#20A6AF"/>
<path d="M38.0605 130.659H39.968C40.4948 130.659 40.9218 130.233 40.9218 129.706C40.9218 129.179 40.4948 128.752 39.968 128.752H38.0605C37.5337 128.752 37.1067 129.179 37.1067 129.706C37.1067 130.233 37.5337 130.659 38.0605 130.659Z" fill="#20A6AF"/>
<path d="M32.2742 136.382H30.3666C29.8398 136.382 29.4128 136.809 29.4128 137.336C29.4128 137.863 29.8398 138.29 30.3666 138.29H32.2742C32.801 138.29 33.2279 137.863 33.2279 137.336C33.2279 136.809 32.801 136.382 32.2742 136.382Z" fill="#20A6AF"/>
<path d="M45.6906 126.844H47.5981C48.125 126.844 48.5519 126.417 48.5519 125.891C48.5519 125.364 48.125 124.937 47.5981 124.937H45.6906C45.1638 124.937 44.7368 125.364 44.7368 125.891C44.7368 126.417 45.1638 126.844 45.6906 126.844Z" fill="#20A6AF"/>
<path d="M231.766 182.87L231.201 182.549C231.52 181.986 231.834 181.42 232.142 180.85L232.713 181.159C232.403 181.733 232.087 182.303 231.766 182.87Z" fill="#CCCCCC"/>
<path d="M63.4706 95.2781L62.8838 94.9985C63.1647 94.4093 63.4514 93.8234 63.744 93.2409L64.3249 93.5326C64.0344 94.1112 63.7496 94.6931 63.4706 95.2781Z" fill="#CCCCCC"/>
<path d="M66.14 90.0975L65.5717 89.782C66.2019 88.6465 66.8641 87.5093 67.5399 86.4014L68.0948 86.7401C67.4236 87.8402 66.7659 88.9698 66.14 90.0975ZM229.967 87.1963C229.303 86.094 228.606 84.989 227.895 83.9121L228.438 83.5541C229.153 84.6384 229.855 85.7511 230.523 86.8608L229.967 87.1963ZM70.1862 83.4649L69.6457 83.104C70.3669 82.0242 71.1203 80.9446 71.885 79.8955L72.4103 80.2782C71.6508 81.3204 70.9025 82.3926 70.1862 83.4649ZM225.691 80.7153C224.938 79.6693 224.153 78.6249 223.358 77.6112L223.869 77.21C224.669 78.2307 225.46 79.2822 226.219 80.3354L225.691 80.7153ZM74.7628 77.1857L74.2536 76.7817C75.061 75.7642 75.9 74.7502 76.7474 73.7675L77.2396 74.1922C76.398 75.1681 75.5647 76.1751 74.7628 77.1857ZM220.899 74.6047C220.062 73.6228 219.194 72.6457 218.319 71.7007L218.796 71.2592C219.677 72.2107 220.551 73.1943 221.393 74.1828L220.899 74.6047ZM79.8365 71.3024L79.362 70.858C80.2486 69.9111 81.1674 68.9689 82.0929 68.058L82.5489 68.521C81.6297 69.4259 80.7171 70.3618 79.8365 71.3024ZM215.623 68.9043C214.71 67.995 213.765 67.0918 212.815 66.2199L213.254 65.741C214.211 66.6189 215.162 67.5282 216.082 68.4437L215.623 68.9043ZM85.3724 65.8532L84.9357 65.3717C85.8966 64.5001 86.8891 63.6362 87.8854 62.804L88.3022 63.3029C87.3125 64.1294 86.3269 64.9875 85.3724 65.8532ZM209.899 63.6524C208.914 62.82 207.898 61.9969 206.88 61.2058L207.279 60.6925C208.304 61.489 209.326 62.3179 210.318 63.156L209.899 63.6524ZM91.3334 60.8746L90.9375 60.3591C91.966 59.5691 93.0255 58.7893 94.0867 58.0412L94.4612 58.5725C93.4073 59.3155 92.355 60.0901 91.3334 60.8746ZM203.764 58.8843C202.714 58.1351 201.634 57.3977 200.555 56.6924L200.91 56.1482C201.997 56.8584 203.084 57.6008 204.141 58.3552L203.764 58.8843ZM97.6802 56.4006L97.3278 55.8543C98.4176 55.1511 99.5372 54.4608 100.655 53.8025L100.985 54.3627C99.8746 55.0166 98.7626 55.7021 97.6802 56.4006ZM197.258 54.634C196.151 53.9738 195.014 53.3273 193.879 52.7125L194.188 52.1408C195.331 52.7599 196.476 53.4109 197.591 54.0757L197.258 54.634ZM104.371 52.4622L104.064 51.889C105.209 51.277 106.382 50.6811 107.549 50.1178L107.831 50.703C106.672 51.2626 105.508 51.8545 104.371 52.4622ZM190.423 50.9314C189.262 50.3629 188.075 49.8123 186.897 49.2946L187.158 48.6995C188.345 49.2206 189.539 49.7751 190.709 50.3477L190.423 50.9314ZM111.361 49.0884L111.102 48.4917C112.292 47.9771 113.509 47.4799 114.72 47.0141L114.953 47.621C113.751 48.0834 112.542 48.5771 111.361 49.0884ZM183.305 47.8046C182.104 47.3352 180.875 46.8842 179.654 46.4644L179.866 45.8496C181.095 46.2724 182.332 46.7264 183.542 47.1992L183.305 47.8046ZM118.603 46.3033L118.395 45.6876C119.625 45.2721 120.878 44.8773 122.121 44.514L122.303 45.138C121.069 45.4987 119.824 45.8909 118.603 46.3033ZM175.951 45.2764C174.713 44.9076 173.451 44.5597 172.2 44.2426L172.36 43.6126C173.62 43.9319 174.89 44.282 176.136 44.6533L175.951 45.2764ZM126.048 44.1265L125.891 43.4955C127.151 43.1833 128.432 42.8934 129.7 42.6341L129.83 43.2708C128.571 43.5285 127.298 43.8164 126.048 44.1265ZM168.409 43.3652C167.151 43.1011 165.867 42.8593 164.592 42.6461L164.699 42.005C165.983 42.2196 167.276 42.4632 168.543 42.7291L168.409 43.3652ZM133.651 42.5708L133.547 41.929C134.828 41.7214 136.131 41.5378 137.42 41.3832L137.498 42.0285C136.218 42.1821 134.924 42.3646 133.651 42.5708ZM160.749 42.085C159.472 41.9253 158.173 41.7897 156.885 41.6821L156.939 41.0343C158.236 41.1426 159.544 41.2791 160.829 41.44L160.749 42.085ZM141.363 41.6446L141.312 40.9965C142.605 40.8948 143.919 40.8181 145.216 40.7687L145.241 41.4183C143.952 41.4673 142.647 41.5434 141.363 41.6446ZM153.009 41.437C151.721 41.3821 150.415 41.3526 149.125 41.3494L149.127 40.6994C150.425 40.7026 151.74 40.7323 153.036 40.7876L153.009 41.437Z" fill="#768092"/>
<path d="M232.832 92.3059C232.533 91.7309 232.228 91.1595 231.917 90.5916L232.487 90.2796C232.8 90.8514 233.107 91.4267 233.409 92.0056L232.832 92.3059Z" fill="#CCCCCC"/>
<path d="M109.384 135.44H72.983C72.2934 135.44 71.6321 135.166 71.1445 134.678C70.6569 134.191 70.3829 133.529 70.3829 132.84C70.3829 132.15 70.6569 131.489 71.1445 131.001C71.6321 130.514 72.2934 130.24 72.983 130.24H109.384C110.074 130.24 110.735 130.514 111.223 131.001C111.71 131.489 111.984 132.15 111.984 132.84C111.984 133.529 111.71 134.191 111.223 134.678C110.735 135.166 110.074 135.44 109.384 135.44Z" fill="#CCCCCC"/>
<path d="M86.6335 124.389H72.983C72.2934 124.389 71.6321 124.116 71.1445 123.628C70.6569 123.14 70.3829 122.479 70.3829 121.789C70.3829 121.1 70.6569 120.438 71.1445 119.951C71.6321 119.463 72.2934 119.189 72.983 119.189H86.6335C87.3231 119.189 87.9844 119.463 88.472 119.951C88.9596 120.438 89.2336 121.1 89.2336 121.789C89.2336 122.479 88.9596 123.14 88.472 123.628C87.9844 124.116 87.3231 124.389 86.6335 124.389Z" fill="#CCCCCC"/>
<rect x="134.316" y="178.475" width="156.533" height="29.7288" rx="5" fill="#212F43"/>
<rect x="131.711" y="175.871" width="156.533" height="29.7288" rx="5" fill="#1E2A3B"/>
<path d="M171.569 179.778C169.512 179.778 167.501 180.388 165.791 181.53C164.08 182.673 162.747 184.298 161.96 186.198C161.173 188.098 160.967 190.19 161.368 192.207C161.77 194.224 162.76 196.078 164.215 197.532C165.669 198.987 167.522 199.977 169.54 200.379C171.557 200.78 173.649 200.574 175.549 199.787C177.449 199 179.074 197.666 180.217 195.956C181.359 194.246 181.969 192.235 181.969 190.178C181.966 187.421 180.869 184.777 178.92 182.827C176.97 180.878 174.326 179.781 171.569 179.778Z" fill="#20A6AF"/>
<path d="M266.907 198.953H192.48C191.79 198.953 191.129 198.679 190.641 198.192C190.154 197.704 189.88 197.043 189.88 196.353C189.88 195.664 190.154 195.002 190.641 194.515C191.129 194.027 191.79 193.753 192.48 193.753H266.907C267.597 193.753 268.258 194.027 268.746 194.515C269.233 195.002 269.507 195.664 269.507 196.353C269.507 197.043 269.233 197.704 268.746 198.192C268.258 198.679 267.597 198.953 266.907 198.953Z" fill="#CCCCCC"/>
<path d="M229.531 187.903H192.48C191.79 187.903 191.129 187.629 190.641 187.141C190.154 186.654 189.88 185.992 189.88 185.303C189.88 184.613 190.154 183.952 190.641 183.464C191.129 182.977 191.79 182.703 192.48 182.703H229.531C230.221 182.703 230.882 182.977 231.37 183.464C231.857 183.952 232.131 184.613 232.131 185.303C232.131 185.992 231.857 186.654 231.37 187.141C230.882 187.629 230.221 187.903 229.531 187.903Z" fill="#CCCCCC"/>
<path d="M170.864 194.726C170.595 194.726 170.333 194.639 170.118 194.478L170.105 194.468L167.298 192.32C167.035 192.119 166.863 191.822 166.82 191.494C166.777 191.166 166.865 190.834 167.067 190.571C167.268 190.309 167.565 190.137 167.893 190.093C168.221 190.05 168.553 190.139 168.816 190.34L170.634 191.735L174.931 186.129C175.031 185.999 175.155 185.89 175.297 185.808C175.439 185.726 175.595 185.672 175.758 185.651C175.92 185.63 176.085 185.64 176.243 185.683C176.401 185.725 176.55 185.798 176.68 185.898L176.68 185.898L176.653 185.935L176.681 185.898C176.943 186.099 177.114 186.397 177.158 186.725C177.201 187.053 177.112 187.384 176.911 187.647L171.857 194.238C171.74 194.389 171.59 194.512 171.418 194.597C171.246 194.681 171.056 194.725 170.865 194.724L170.864 194.726Z" fill="white"/>
<path d="M251.739 115.882H219.888C219.199 115.882 218.537 115.608 218.05 115.12C217.562 114.632 217.288 113.971 217.288 113.282C217.288 112.592 217.562 111.931 218.05 111.443C218.537 110.955 219.199 110.681 219.888 110.681H251.739C252.429 110.681 253.09 110.955 253.578 111.443C254.065 111.931 254.339 112.592 254.339 113.282C254.339 113.971 254.065 114.632 253.578 115.12C253.09 115.608 252.429 115.882 251.739 115.882Z" fill="#CCCCCC"/>
<path d="M241.989 104.831H219.888C219.199 104.831 218.537 104.557 218.05 104.07C217.562 103.582 217.288 102.921 217.288 102.231C217.288 101.542 217.562 100.88 218.05 100.393C218.537 99.905 219.199 99.6311 219.888 99.6311H241.989C242.679 99.6311 243.34 99.905 243.827 100.393C244.315 100.88 244.589 101.542 244.589 102.231C244.589 102.921 244.315 103.582 243.827 104.07C243.34 104.557 242.679 104.831 241.989 104.831Z" fill="#CCCCCC"/>
</g>
<path d="M440.887 332.396H251.017C250.821 332.396 250.634 332.319 250.496 332.181C250.358 332.043 250.281 331.855 250.281 331.66C250.281 331.465 250.358 331.278 250.496 331.14C250.634 331.002 250.821 330.924 251.017 330.924H440.887C441.082 330.924 441.269 331.002 441.407 331.14C441.545 331.278 441.623 331.465 441.623 331.66C441.623 331.855 441.545 332.043 441.407 332.181C441.269 332.319 441.082 332.396 440.887 332.396Z" fill="#CCCCCC"/>
<path d="M371.835 169.926L366.837 119.929L365.517 99.3521L379.507 96.7379C379.507 96.7379 381.602 110.884 383.435 119.185C385.243 127.377 381.025 168.828 380.914 169.921C381.941 170.871 382.665 172.12 382.991 173.504C383.316 174.888 383.227 176.342 382.736 177.672C382.244 179.003 381.373 180.148 380.239 180.956C379.104 181.765 377.758 182.198 376.38 182.198C375.002 182.199 373.656 181.767 372.52 180.96C371.384 180.153 370.513 179.009 370.02 177.679C369.527 176.348 369.437 174.895 369.761 173.511C370.085 172.126 370.808 170.876 371.835 169.926Z" fill="#FFB8B8"/>
<path d="M336.031 318.75L329.093 320.389L319.674 293.514L329.914 291.095L336.031 318.75Z" fill="#FFB6B6"/>
<path d="M337.285 315.991L335.514 316.407L335.332 316.452L327.235 315.088L326.999 315.049L323.618 319.219C321.309 319.765 319.304 321.236 318.044 323.31C316.784 325.383 316.373 327.889 316.901 330.276L316.911 330.325L316.97 330.569L318.001 330.325L339.34 325.279L337.285 315.991Z" fill="#2F2E41"/>
<path d="M377.391 323.437H370.274L366.889 295.069L377.392 295.069L377.391 323.437Z" fill="#FFB6B6"/>
<path d="M377.205 321.038L376.583 320.777L369.607 317.844L369.382 317.749L365.191 321.038C364.019 321.037 362.857 321.275 361.773 321.739C360.69 322.202 359.705 322.882 358.875 323.739C358.046 324.596 357.387 325.613 356.938 326.733C356.489 327.852 356.258 329.052 356.258 330.265V330.564L375.901 330.57H379.207V321.038H377.205Z" fill="#2F2E41"/>
<path d="M366.566 171.607L372.552 230.374C372.552 230.374 380.521 289.217 379.024 297.336C377.528 305.455 379.398 306.615 379.398 306.615L365.744 305.61C365.744 305.61 366.118 300.584 363.873 298.264C361.628 295.944 362.751 288.985 362.751 288.985L336.263 193.258L320.176 243.519C320.176 243.519 330.339 284.279 329.965 285.052C329.59 285.825 336.403 302.796 336.403 302.796L321.16 308.02C321.16 308.02 323.031 301.834 320.412 299.901C317.793 297.968 315.549 299.514 317.793 296.034C320.038 292.555 300.108 267 300.546 250.531C300.678 245.577 300.837 240.261 301.029 234.815C302.042 205.996 303.956 173.522 307.456 171.607C313.816 168.127 366.566 171.607 366.566 171.607Z" fill="#2F2E41"/>
<path d="M338.219 52.6183C346.35 52.6183 352.941 45.8063 352.941 37.4033C352.941 29.0002 346.35 22.1883 338.219 22.1883C330.087 22.1883 323.496 29.0002 323.496 37.4033C323.496 45.8063 330.087 52.6183 338.219 52.6183Z" fill="#FFB8B8"/>
<path d="M387.378 130.344L367.386 135.588L367.525 129.789L366.007 128.126L362.976 111.714L359.757 69.2236L370.804 75.2786L370.817 75.2893C372.746 77.4825 374.36 79.9513 375.608 82.6199C379.772 91.3692 383.773 110.641 385.867 121.834C385.939 122.069 386.078 122.276 386.266 122.428C387.304 123.413 387.982 124.739 388.185 126.181C388.388 127.623 388.102 129.094 387.378 130.344Z" fill="#497AD4"/>
<path d="M269.237 149.146C269.237 149.146 296.832 119.082 297.089 118.515C299.017 103.388 304.561 96.7148 305.392 97.4393L319.701 102.562C319.701 102.562 315.445 116.491 312.563 124.764C309.81 132.67 278.074 151.98 277.544 152.933C278.113 154.23 278.287 155.676 278.043 157.078C277.8 158.479 277.15 159.772 276.18 160.784C275.211 161.796 273.966 162.48 272.612 162.746C271.258 163.011 269.858 162.845 268.597 162.27C267.336 161.696 266.274 160.739 265.55 159.526C264.827 158.314 264.477 156.903 264.546 155.481C264.616 154.058 265.101 152.691 265.939 151.56C266.777 150.429 267.927 149.587 269.237 149.146Z" fill="#FFB8B8"/>
<path d="M326.575 71.9601C326.575 71.9601 314.186 65.6854 309.381 78.0093C306.746 84.9667 300.009 101.852 296.652 112.246C296.629 112.312 296.599 112.375 296.56 112.433C295.662 113.812 295.178 115.434 295.167 117.096C295.168 117.217 295.156 117.337 295.131 117.456C295.131 117.456 308.745 120.197 312.794 127.571L314.4 125.77L314.686 124.508L326.575 71.9601Z" fill="#497AD4"/>
<path d="M371.655 178.012C343.142 184.097 305.357 173.635 305.357 173.635L315.437 128.482L311.853 81.228C311.416 75.4494 314.601 70.0326 319.555 68.1131L326.396 65.465L332.051 57.0986L348.204 57.6463L354.661 66.4298L359.757 69.2236L370.804 75.2786L370.852 75.3037V75.3288L367.386 110.081L365.295 131.035C365.295 131.035 371.645 154.601 370.342 157.727C369.039 160.847 370.172 159.34 370.488 161.008C370.804 162.676 371.771 162.782 371.917 166.068C372.068 169.349 371.655 178.012 371.655 178.012Z" fill="#497AD4"/>
<path d="M354.19 31.9852C353.026 30.7991 354.778 27.6588 354.447 26.0047C354.068 24.1083 352.046 24.0528 351.563 22.1815C351.044 20.1685 348.969 19.0727 347.05 18.4347C342.131 16.8081 336.882 16.5597 331.84 17.7147C329.608 18.2779 327.411 18.9773 325.26 19.8095C323.774 20.3497 325.207 18.8798 323.722 19.42C323.159 19.5495 322.663 19.8896 322.329 20.3748C322.062 20.8964 322.422 21.7308 322.984 21.6251C321.171 22.4514 319.358 23.2777 317.545 24.104C318.562 25.2047 319.578 26.3056 320.595 27.4064C319.15 26.9812 317.609 28.7624 318.178 30.1996C318.408 30.6533 318.74 31.0425 319.148 31.3339C319.555 31.6252 320.024 31.8098 320.516 31.8719C322.149 32.2003 320.91 33.8065 322.574 33.7752C324.237 33.744 335.838 30.22 336.646 31.7226C337.222 32.7926 337.159 34.2099 337.981 35.0914C339.033 36.2193 340.87 35.8068 342.209 35.0725C343.548 34.3383 344.906 33.3292 346.412 33.5052C347.985 33.689 349.174 36.6921 349.561 38.2779C349.949 39.8637 349.704 41.5322 349.458 43.1478C349.134 45.2696 345.893 47.3913 345.569 49.513C349.166 50.5411 353.025 47.2701 354.447 41.5818C354.305 37.986 356.669 34.5128 354.19 31.9852Z" fill="#2F2E41"/>
<defs>
<clipPath id="clip0_66_1173">
<rect width="291.698" height="190.454" fill="white" transform="translate(8 40.6994)"/>
</clipPath>
</defs>
</svg>
